<svg xmlns="http://www.w3.org/2000/svg" width="260" height="240" viewBox="0 0 260 240" fill="none" role="img" aria-label="BattINFO stacked logo">
  
  <g transform="translate(80,6)">
    <rect x="38" y="6" width="24" height="11" rx="3.5" fill="#102A43"></rect>
    <rect x="19" y="17" width="62" height="86" rx="13" fill="none" stroke="#102A43" stroke-width="6.5"></rect>
    <line x1="56" y1="41" x2="65" y2="74" stroke="#12A394" stroke-width="6" stroke-linecap="round"></line>
    <line x1="65" y1="74" x2="33" y2="65" stroke="#12A394" stroke-width="6" stroke-linecap="round"></line>
    <line x1="33" y1="65" x2="56" y2="41" stroke="#12A394" stroke-width="6" stroke-linecap="round"></line>
    <circle cx="56" cy="41" r="7.5" fill="#12A394"></circle>
    <circle cx="65" cy="74" r="7.5" fill="#12A394"></circle>
    <circle cx="33" cy="65" r="7.5" fill="#12A394"></circle>
  </g>
  <g class="wm">
      <path fill="#102A43" d="M-7.3 200.0V152.3H12.9Q17.8 152.3 21.3 154.0Q24.9 155.6 26.7 158.8Q28.6 161.9 28.6 166.3Q28.6 169.4 26.8 172.3Q25.1 175.1 21.2 177.0V172.2Q24.9 173.6 27.0 175.7Q29.0 177.7 29.8 180.1Q30.6 182.5 30.6 185.2Q30.6 192.2 25.9 196.1Q21.2 200.0 12.9 200.0ZM2.7 191.4H14.0Q17.1 191.4 18.8 189.6Q20.6 187.9 20.6 185.2Q20.6 182.3 18.8 180.6Q17.1 178.9 14.0 178.9H2.7ZM2.7 170.2H13.6Q15.9 170.2 17.3 168.9Q18.7 167.6 18.7 165.4Q18.7 163.3 17.3 162.0Q15.9 160.6 13.6 160.6H2.7Z M45.5 200.8Q41.7 200.8 39.0 199.6Q36.2 198.3 34.8 196.1Q33.3 193.8 33.3 190.7Q33.3 187.7 34.6 185.4Q36.0 183.2 38.8 181.6Q41.5 180.1 45.7 179.5L56.4 177.7V184.8L47.4 186.4Q45.4 186.8 44.3 187.7Q43.2 188.6 43.2 190.3Q43.2 191.9 44.4 192.8Q45.6 193.7 47.4 193.7Q49.8 193.7 51.6 192.7Q53.4 191.7 54.4 189.9Q55.4 188.2 55.4 186.0V177.0Q55.4 175.0 53.8 173.6Q52.2 172.3 49.5 172.3Q47.0 172.3 45.0 173.7Q43.1 175.1 42.2 177.4L34.5 173.8Q35.5 170.8 37.8 168.7Q40.0 166.6 43.1 165.4Q46.3 164.3 50.0 164.3Q54.4 164.3 57.8 165.9Q61.2 167.5 63.1 170.3Q65.0 173.2 65.0 177.0V200.0H56.0V194.4L58.2 194.0Q56.6 196.3 54.8 197.8Q52.9 199.3 50.6 200.0Q48.3 200.8 45.5 200.8Z M87.3 200.4Q81.0 200.4 77.5 197.0Q74.0 193.5 74.0 187.4V173.4H68.1V165.1H68.5Q71.1 165.1 72.6 163.7Q74.0 162.4 74.0 159.7V157.1H83.6V165.1H91.8V173.4H83.6V186.8Q83.6 188.5 84.3 189.7Q84.9 190.9 86.2 191.5Q87.6 192.1 89.6 192.1Q90.0 192.1 90.6 192.0Q91.2 191.9 91.8 191.9V200.0Q90.9 200.1 89.6 200.3Q88.4 200.4 87.3 200.4Z M112.8 200.4Q106.4 200.4 103.0 197.0Q99.5 193.5 99.5 187.4V173.4H93.6V165.1H93.9Q96.6 165.1 98.0 163.7Q99.5 162.4 99.5 159.7V157.1H109.1V165.1H117.3V173.4H109.1V186.8Q109.1 188.5 109.7 189.7Q110.3 190.9 111.7 191.5Q113.0 192.1 115.0 192.1Q115.5 192.1 116.0 192.0Q116.6 191.9 117.3 191.9V200.0Q116.3 200.1 115.1 200.3Q113.9 200.4 112.8 200.4Z"/>
      <path fill="#12A394" d="M122.1 200.0V152.3H132.0V200.0Z M139.0 200.0V152.3H146.6L172.2 186.0L168.1 187.0V152.3H178.0V200.0H170.3L145.2 166.0L148.9 165.1V200.0Z M185.0 200.0V152.3H217.6V161.0H194.9V173.1H214.4V181.7H194.9V200.0Z M244.9 200.8Q239.5 200.8 234.9 198.9Q230.3 197.1 226.9 193.7Q223.5 190.3 221.5 185.9Q219.6 181.4 219.6 176.1Q219.6 170.9 221.5 166.4Q223.4 161.9 226.8 158.6Q230.2 155.3 234.8 153.4Q239.5 151.6 244.9 151.6Q250.3 151.6 254.9 153.4Q259.5 155.3 263.0 158.6Q266.4 161.9 268.3 166.4Q270.2 170.9 270.2 176.1Q270.2 181.4 268.3 185.9Q266.3 190.3 262.9 193.7Q259.5 197.1 254.9 198.9Q250.3 200.8 244.9 200.8ZM244.9 191.8Q248.2 191.8 250.9 190.7Q253.7 189.5 255.8 187.4Q257.9 185.3 259.1 182.5Q260.3 179.6 260.3 176.1Q260.3 172.7 259.1 169.8Q257.9 167.0 255.8 164.9Q253.7 162.8 250.9 161.6Q248.2 160.5 244.9 160.5Q241.6 160.5 238.8 161.6Q236.1 162.8 233.9 164.9Q231.8 167.0 230.7 169.8Q229.5 172.7 229.5 176.1Q229.5 179.6 230.7 182.5Q231.8 185.3 233.9 187.4Q236.1 189.5 238.8 190.7Q241.6 191.8 244.9 191.8Z"/>
    </g>
</svg>