<svg xmlns="http://www.w3.org/2000/svg" width="470" height="112" viewBox="0 0 470 112" fill="none" role="img" aria-label="BattINFO logo on dark">
  
  <rect x="38" y="6" width="24" height="11" rx="3.5" fill="#FFFFFF"></rect>
  <rect x="19" y="17" width="62" height="86" rx="13" fill="none" stroke="#FFFFFF" stroke-width="6.5"></rect>
  <line x1="56" y1="41" x2="65" y2="74" stroke="#12A394" stroke-width="6" stroke-linecap="round"></line>
  <line x1="65" y1="74" x2="33" y2="65" stroke="#12A394" stroke-width="6" stroke-linecap="round"></line>
  <line x1="33" y1="65" x2="56" y2="41" stroke="#12A394" stroke-width="6" stroke-linecap="round"></line>
  <circle cx="56" cy="41" r="7.5" fill="#12A394"></circle>
  <circle cx="65" cy="74" r="7.5" fill="#12A394"></circle>
  <circle cx="33" cy="65" r="7.5" fill="#12A394"></circle>
  <g class="wm">
      <path fill="#FFFFFF" d="M112.2 80.0V32.3H132.4Q137.3 32.3 140.8 34.0Q144.4 35.6 146.2 38.8Q148.1 41.9 148.1 46.3Q148.1 49.4 146.3 52.3Q144.6 55.1 140.6 57.0V52.2Q144.4 53.6 146.5 55.7Q148.5 57.7 149.3 60.1Q150.0 62.5 150.0 65.2Q150.0 72.2 145.4 76.1Q140.7 80.0 132.4 80.0ZM122.1 71.4H133.5Q136.5 71.4 138.3 69.6Q140.1 67.9 140.1 65.2Q140.1 62.3 138.3 60.6Q136.5 58.9 133.5 58.9H122.1ZM122.1 50.2H133.1Q135.4 50.2 136.8 48.9Q138.1 47.6 138.1 45.4Q138.1 43.3 136.8 42.0Q135.4 40.6 133.1 40.6H122.1Z M165.0 80.8Q161.2 80.8 158.5 79.6Q155.7 78.3 154.2 76.1Q152.8 73.8 152.8 70.7Q152.8 67.7 154.1 65.4Q155.5 63.2 158.2 61.6Q161.0 60.1 165.2 59.5L175.9 57.7V64.8L166.9 66.4Q164.9 66.8 163.8 67.7Q162.7 68.6 162.7 70.3Q162.7 71.9 163.9 72.8Q165.1 73.7 166.9 73.7Q169.3 73.7 171.1 72.7Q172.9 71.7 173.9 69.9Q174.9 68.2 174.9 66.0V57.0Q174.9 55.0 173.3 53.6Q171.7 52.3 169.0 52.3Q166.5 52.3 164.5 53.7Q162.6 55.1 161.7 57.4L154.0 53.8Q155.0 50.8 157.3 48.7Q159.5 46.6 162.6 45.4Q165.8 44.3 169.5 44.3Q173.9 44.3 177.3 45.9Q180.7 47.5 182.6 50.3Q184.5 53.2 184.5 57.0V80.0H175.5V74.4L177.7 74.0Q176.1 76.3 174.3 77.8Q172.4 79.3 170.1 80.0Q167.8 80.8 165.0 80.8Z M206.8 80.4Q200.5 80.4 197.0 77.0Q193.5 73.5 193.5 67.4V53.4H187.6V45.1H187.9Q190.6 45.1 192.1 43.7Q193.5 42.4 193.5 39.7V37.1H203.1V45.1H211.3V53.4H203.1V66.8Q203.1 68.5 203.8 69.7Q204.4 70.9 205.7 71.5Q207.1 72.1 209.1 72.1Q209.5 72.1 210.1 72.0Q210.7 71.9 211.3 71.9V80.0Q210.3 80.1 209.1 80.3Q207.9 80.4 206.8 80.4Z M232.3 80.4Q225.9 80.4 222.4 77.0Q219.0 73.5 219.0 67.4V53.4H213.1V45.1H213.4Q216.1 45.1 217.5 43.7Q219.0 42.4 219.0 39.7V37.1H228.6V45.1H236.7V53.4H228.6V66.8Q228.6 68.5 229.2 69.7Q229.8 70.9 231.2 71.5Q232.5 72.1 234.5 72.1Q235.0 72.1 235.5 72.0Q236.1 71.9 236.7 71.9V80.0Q235.8 80.1 234.6 80.3Q233.4 80.4 232.3 80.4Z"/>
      <path fill="#19C2AE" d="M241.6 80.0V32.3H251.5V80.0Z M258.5 80.0V32.3H266.1L291.7 66.0L287.6 67.0V32.3H297.5V80.0H289.8L264.7 46.0L268.4 45.1V80.0Z M304.4 80.0V32.3H337.1V41.0H314.4V53.1H333.9V61.7H314.4V80.0Z M364.4 80.8Q359.0 80.8 354.4 78.9Q349.8 77.1 346.4 73.7Q342.9 70.3 341.0 65.9Q339.1 61.4 339.1 56.1Q339.1 50.9 341.0 46.4Q342.9 41.9 346.3 38.6Q349.7 35.3 354.3 33.4Q358.9 31.6 364.4 31.6Q369.8 31.6 374.4 33.4Q379.0 35.3 382.5 38.6Q385.9 41.9 387.8 46.4Q389.7 50.9 389.7 56.1Q389.7 61.4 387.7 65.9Q385.8 70.3 382.4 73.7Q379.0 77.1 374.4 78.9Q369.8 80.8 364.4 80.8ZM364.4 71.8Q367.6 71.8 370.4 70.7Q373.2 69.5 375.3 67.4Q377.4 65.3 378.6 62.5Q379.7 59.6 379.7 56.1Q379.7 52.7 378.6 49.8Q377.4 47.0 375.3 44.9Q373.2 42.8 370.4 41.6Q367.6 40.5 364.4 40.5Q361.1 40.5 358.3 41.6Q355.5 42.8 353.4 44.9Q351.3 47.0 350.2 49.8Q349.0 52.7 349.0 56.1Q349.0 59.6 350.2 62.5Q351.3 65.3 353.4 67.4Q355.5 69.5 358.3 70.7Q361.1 71.8 364.4 71.8Z"/>
    </g>
</svg>